<?xml version="1.0" encoding="UTF-8" standalone="no"?>
<!-- Created with Inkscape (http://www.inkscape.org/) -->

<svg
   xmlns:dc="http://purl.org/dc/elements/1.1/"
   xmlns:cc="http://creativecommons.org/ns#"
   xmlns:rdf="http://www.w3.org/1999/02/22-rdf-syntax-ns#"
   xmlns:svg="http://www.w3.org/2000/svg"
   xmlns="http://www.w3.org/2000/svg"
   xmlns:sodipodi="http://sodipodi.sourceforge.net/DTD/sodipodi-0.dtd"
   xmlns:inkscape="http://www.inkscape.org/namespaces/inkscape"
   version="1.1"
   id="svg2"
   width="1195.1461"
   height="596.0412"
   viewBox="0 0 1195.1461 596.0412"
   sodipodi:docname="fluss.svg"
   inkscape:version="0.92.5 (2060ec1f9f, 2020-04-08)">
  <metadata
     id="metadata8">
    <rdf:RDF>
      <cc:Work
         rdf:about="">
        <dc:format>image/svg+xml</dc:format>
        <dc:type
           rdf:resource="http://purl.org/dc/dcmitype/StillImage" />
        <dc:title />
      </cc:Work>
    </rdf:RDF>
  </metadata>
  <defs
     id="defs6" />
  <sodipodi:namedview
     pagecolor="#ffffff"
     bordercolor="#666666"
     borderopacity="1"
     objecttolerance="10"
     gridtolerance="10"
     guidetolerance="10"
     inkscape:pageopacity="0"
     inkscape:pageshadow="2"
     inkscape:window-width="1680"
     inkscape:window-height="955"
     id="namedview4"
     showgrid="false"
     inkscape:zoom="0.85357448"
     inkscape:cx="423.21332"
     inkscape:cy="313.20623"
     inkscape:window-x="0"
     inkscape:window-y="25"
     inkscape:window-maximized="1"
     inkscape:current-layer="svg2"
     fit-margin-top="0"
     fit-margin-left="0"
     fit-margin-right="0"
     fit-margin-bottom="0" />
  <rect
     ry="5"
     rx="5"
     y="87.183388"
     x="750.64911"
     height="42.154087"
     width="84.308174"
     id="rect874"
     style="opacity:1;vector-effect:none;fill:#ffffff;fill-opacity:1;stroke:#000000;stroke-width:3;stroke-linecap:butt;stroke-linejoin:round;stroke-miterlimit:4;stroke-dasharray:none;stroke-dashoffset:0;stroke-opacity:1;marker:none;marker-start:none;marker-mid:none;marker-end:none" />
  <path
     inkscape:connector-curvature="0"
     id="path876"
     d="M 791.37906,129.05264 V 178.897"
     style="fill:none;stroke:#000000;stroke-width:5;stroke-linecap:butt;stroke-linejoin:miter;stroke-miterlimit:4;stroke-dasharray:none;stroke-opacity:1" />
  <text
     id="text880"
     y="119.36199"
     x="783.88135"
     style="font-style:normal;font-variant:normal;font-weight:normal;font-stretch:normal;font-size:32px;line-height:1.25;font-family:Arial;-inkscape-font-specification:Arial;font-variant-ligatures:normal;font-variant-position:normal;font-variant-caps:normal;font-variant-numeric:normal;font-variant-alternates:normal;font-feature-settings:normal;text-indent:0;text-align:start;text-decoration:none;text-decoration-line:none;text-decoration-style:solid;text-decoration-color:#000000;letter-spacing:0px;word-spacing:0px;text-transform:none;writing-mode:lr-tb;direction:ltr;text-orientation:mixed;dominant-baseline:auto;baseline-shift:baseline;text-anchor:start;white-space:normal;shape-padding:0;opacity:1;vector-effect:none;fill:#000000;fill-opacity:1;stroke:none;stroke-width:1;stroke-linecap:butt;stroke-linejoin:miter;stroke-miterlimit:4;stroke-dasharray:none;stroke-dashoffset:0;stroke-opacity:1"
     xml:space="preserve"><tspan
       y="119.36199"
       x="783.88135"
       id="tspan878"
       sodipodi:role="line">5</tspan></text>
  <path
     style="fill:none;stroke:#000000;stroke-width:5;stroke-linecap:butt;stroke-linejoin:miter;stroke-miterlimit:4;stroke-dasharray:none;stroke-opacity:1"
     d="M 971.37906,113.05264 V 162.897"
     id="path850"
     inkscape:connector-curvature="0" />
  <path
     style="fill:none;stroke:#003064;stroke-width:37.59999847;stroke-linecap:butt;stroke-linejoin:round;stroke-miterlimit:4;stroke-dasharray:none;stroke-opacity:1"
     d="m 19.895994,595.98709 c 0.193055,-67.09167 -17.9812765,-86.63479 86.586766,-94.98665 104.56804,-8.35186 288.01599,37.07368 287.10351,-94.56187 -0.26872,-67.70356 31.79487,-63.81487 72.91517,-64.94008 41.1203,-1.12521 84.01261,-0.95996 175.45214,0 91.43953,0.95996 135.70847,-19.35882 131.01946,-107.09416 -0.64443,-37.66951 43.69224,-54.88449 82.02957,-54.68638 38.33733,0.19811 242.67079,0 242.67079,0"
     id="path12"
     inkscape:connector-curvature="0"
     sodipodi:nodetypes="czczzczc" />
  <rect
     style="opacity:1;vector-effect:none;fill:#ffffff;fill-opacity:1;stroke:#000000;stroke-width:3;stroke-linecap:butt;stroke-linejoin:round;stroke-miterlimit:4;stroke-dasharray:none;stroke-dashoffset:0;stroke-opacity:1;marker:none;marker-start:none;marker-mid:none;marker-end:none"
     id="rect822"
     width="84.308174"
     height="42.154087"
     x="61.195606"
     y="390.48837"
     rx="5"
     ry="5" />
  <path
     style="fill:none;stroke:#000000;stroke-width:5;stroke-linecap:butt;stroke-linejoin:miter;stroke-miterlimit:4;stroke-dasharray:none;stroke-opacity:1"
     d="m 101.92556,432.35763 v 49.84436"
     id="path824"
     inkscape:connector-curvature="0" />
  <rect
     ry="5"
     rx="5"
     y="390.20355"
     x="233.79948"
     height="42.154087"
     width="84.308174"
     id="rect830"
     style="opacity:1;vector-effect:none;fill:#ffffff;fill-opacity:1;stroke:#000000;stroke-width:3;stroke-linecap:butt;stroke-linejoin:round;stroke-miterlimit:4;stroke-dasharray:none;stroke-dashoffset:0;stroke-opacity:1;marker:none;marker-start:none;marker-mid:none;marker-end:none" />
  <path
     inkscape:connector-curvature="0"
     id="path832"
     d="m 274.52945,432.07281 v 49.84436"
     style="fill:none;stroke:#000000;stroke-width:5;stroke-linecap:butt;stroke-linejoin:miter;stroke-miterlimit:4;stroke-dasharray:none;stroke-opacity:1" />
  <rect
     style="opacity:1;vector-effect:none;fill:#ffffff;fill-opacity:1;stroke:#000000;stroke-width:3;stroke-linecap:butt;stroke-linejoin:round;stroke-miterlimit:4;stroke-dasharray:none;stroke-dashoffset:0;stroke-opacity:1;marker:none;marker-start:none;marker-mid:none;marker-end:none"
     id="rect836"
     width="84.308174"
     height="42.154087"
     x="415.06097"
     y="231.49908"
     rx="5"
     ry="5" />
  <path
     style="fill:none;stroke:#000000;stroke-width:5;stroke-linecap:butt;stroke-linejoin:miter;stroke-miterlimit:4;stroke-dasharray:none;stroke-opacity:1"
     d="m 455.79091,273.36833 v 49.84436"
     id="path838"
     inkscape:connector-curvature="0" />
  <rect
     ry="5"
     rx="5"
     y="230.69348"
     x="624.51868"
     height="42.154087"
     width="84.308174"
     id="rect842"
     style="opacity:1;vector-effect:none;fill:#ffffff;fill-opacity:1;stroke:#000000;stroke-width:3;stroke-linecap:butt;stroke-linejoin:round;stroke-miterlimit:4;stroke-dasharray:none;stroke-dashoffset:0;stroke-opacity:1;marker:none;marker-start:none;marker-mid:none;marker-end:none" />
  <path
     inkscape:connector-curvature="0"
     id="path844"
     d="m 665.2486,272.56272 v 49.84436"
     style="fill:none;stroke:#000000;stroke-width:5;stroke-linecap:butt;stroke-linejoin:miter;stroke-miterlimit:4;stroke-dasharray:none;stroke-opacity:1" />
  <rect
     style="opacity:1;vector-effect:none;fill:#ffffff;fill-opacity:1;stroke:#000000;stroke-width:3;stroke-linecap:butt;stroke-linejoin:round;stroke-miterlimit:4;stroke-dasharray:none;stroke-dashoffset:0;stroke-opacity:1;marker:none;marker-start:none;marker-mid:none;marker-end:none"
     id="rect848"
     width="84.308174"
     height="42.154087"
     x="930.64911"
     y="71.183388"
     rx="5"
     ry="5" />
  <path
     style="opacity:1;vector-effect:none;fill:#b55c9c;fill-opacity:1;stroke:none;stroke-width:5;stroke-linecap:butt;stroke-linejoin:round;stroke-miterlimit:4;stroke-dasharray:none;stroke-dashoffset:0;stroke-opacity:1;marker:none;marker-start:none;marker-mid:none;marker-end:none"
     d="m 888.2968,122.13362 v 39.02734 h 26.14063 v -39.02734 z m 2.05665,6.15039 h 2.02734 v 4.54102 h -2.02734 z m 4,0 h 2.02734 v 4.54102 h -2.02734 z m 4,0 h 2.02734 v 4.54102 h -2.02734 z m 4,0 h 2.02734 v 4.54102 h -2.02734 z m 4,0 h 2.02734 v 4.54102 h -2.02734 z m 4,0 h 2.02734 v 4.54102 h -2.02734 z m -20,6 h 2.02734 v 4.54102 h -2.02734 z m 4,0 h 2.02734 v 4.54102 h -2.02734 z m 4,0 h 2.02734 v 4.54102 h -2.02734 z m 4,0 h 2.02734 v 4.54102 h -2.02734 z m 4,0 h 2.02734 v 4.54102 h -2.02734 z m 4,0 h 2.02734 v 4.54102 h -2.02734 z m -20,6 h 2.02734 v 4.54102 h -2.02734 z m 4,0 h 2.02734 v 4.54102 h -2.02734 z m 4,0 h 2.02734 v 4.54102 h -2.02734 z m 4,0 h 2.02734 v 4.54102 h -2.02734 z m 4,0 h 2.02734 v 4.54102 h -2.02734 z m 4,0 h 2.02734 v 4.54102 h -2.02734 z m -20,6 h 2.02734 v 4.54102 h -2.02734 z m 4,0 h 2.02734 v 4.54102 h -2.02734 z m 4,0 h 2.02734 v 4.54102 h -2.02734 z m 4,0 h 2.02734 v 4.54102 h -2.02734 z m 4,0 h 2.02734 v 4.54102 h -2.02734 z m 4,0 h 2.02734 v 4.54102 h -2.02734 z m -20,6 h 2.02734 v 4.54102 h -2.02734 z m 4,0 h 2.02734 v 4.54102 h -2.02734 z m 4,0 h 2.02734 v 4.54102 h -2.02734 z m 4,0 h 2.02734 v 4.54102 h -2.02734 z m 4,0 h 2.02734 v 4.54102 h -2.02734 z m 4,0 h 2.02734 v 4.54102 h -2.02734 z"
     id="rect854"
     inkscape:connector-curvature="0" />
  <path
     style="fill:#003064;fill-opacity:1;stroke:none;stroke-width:0.92584193px;stroke-linecap:butt;stroke-linejoin:miter;stroke-opacity:1"
     d="m 1147.787,24.910958 c -0.7985,-0.0067 -1.5971,0.02113 -2.3945,0.08398 -36.4702,2.874755 -50.0735,41.021598 -63.5566,74.607423 -13.6965,34.117409 -46.2489,60.850519 -43.1914,101.607419 3.1508,42.00025 38.3259,66.44112 66.1383,91.98997 25.772,23.67457 60.5473,58.33967 90.1253,53.84759 l 0,-282.550444 c -9.2507,-20.214915 -28.2365,-39.428558 -47.1211,-39.585938 z"
     id="path1054"
     inkscape:connector-curvature="0"
     sodipodi:nodetypes="ccssaccc" />
  <g
     id="g1141"
     transform="translate(17.246321,-65.782433)">
    <path
       id="path2890"
       style="fill:#a7246b;stroke-width:0.14269614"
       d="m 1091.4175,174.16897 6.8673,9.23958 c 0.2481,-0.004 0.4965,-0.0155 0.7447,-0.0178 1.7683,-0.017 3.5336,-0.008 5.302,0.0178 1.7684,0.0257 3.538,0.0679 5.3066,0.10256 1.7684,0.0347 3.5383,0.0659 5.3066,0.0758 1.7681,0.01 3.5344,-0.005 5.302,-0.0535 1.3802,-0.0379 2.7606,-0.12172 4.1382,-0.22743 1.3776,-0.1057 2.7524,-0.23168 4.1293,-0.35229 1.3769,-0.1206 2.7559,-0.23396 4.1338,-0.31661 0.6889,-0.0413 1.3751,-0.0762 2.0646,-0.0981 0.6896,-0.0219 1.3833,-0.0308 2.0736,-0.0267 0.8603,0.005 1.7185,0.0349 2.5773,0.0803 0.5317,-0.5371 1.032,-1.21998 1.3735,-2.13159 1.1914,-3.18013 1.1555,-4.61051 -3.0768,-4.38791 -5.2218,0.28457 -10.5804,2.23976 -15.9506,2.77815 -5.3411,0.53549 -10.7982,1.29407 -16.0976,0.44148 -4.9663,-0.79899 -14.1938,-5.12365 -14.1938,-5.12365 z"
       inkscape:export-ydpi="7.6083226"
       inkscape:export-filename="F:\UTIL\wamp-2.0g-1\www\blog\fp-interface\themes\veoveo2\veoveo2\imgs\velero.png"
       inkscape:connector-curvature="0"
       inkscape:export-xdpi="7.6083226" />
    <path
       id="path3738"
       style="fill:#e1e3ed;stroke-width:0.14269614"
       d="m 1113.3699,140.21785 c 0,0 -2.788,13.30656 -2.6938,20.04881 0.078,5.58427 2.6938,16.53706 2.6938,16.53706 0,0 -4.8474,-3.45225 -8.7478,-4.5366 -3.5391,-0.9839 -8.5206,-0.29268 -8.5206,-0.29268 0,0 3.4704,-11.42311 5.9577,-16.82959 4.2789,-9.30022 11.3107,-14.92744 11.3107,-14.92744 z"
       inkscape:export-ydpi="7.6083226"
       sodipodi:nodetypes="cacscsc"
       inkscape:export-filename="F:\UTIL\wamp-2.0g-1\www\blog\fp-interface\themes\veoveo2\veoveo2\imgs\velero.png"
       inkscape:connector-curvature="0"
       inkscape:export-xdpi="7.6083226" />
    <path
       id="path3741"
       style="fill:#e1e3ed;stroke-width:0.14269614"
       d="m 1114.9795,130.41306 c 0,0 3.5952,14.26719 3.6586,21.55425 0.116,13.33981 -3.6586,25.71384 -3.6586,25.71384 0,0 7.3072,-4.15702 11.2683,-5.48309 5.8846,-1.97007 10.9756,-0.75629 10.9756,-0.75629 0,0 -1.1212,-13.50848 -6.7317,-25.14734 -3.2121,-6.6642 -15.5111,-15.88066 -15.5111,-15.88066 z"
       inkscape:export-ydpi="7.6083226"
       sodipodi:nodetypes="cscscsc"
       inkscape:export-filename="F:\UTIL\wamp-2.0g-1\www\blog\fp-interface\themes\veoveo2\veoveo2\imgs\velero.png"
       inkscape:connector-curvature="0"
       inkscape:export-xdpi="7.6083226" />
  </g>
  <path
     inkscape:export-xdpi="7.6083226"
     inkscape:connector-curvature="0"
     inkscape:export-filename="F:\UTIL\wamp-2.0g-1\www\blog\fp-interface\themes\veoveo2\veoveo2\imgs\velero.png"
     sodipodi:nodetypes="caaaaaccc"
     inkscape:export-ydpi="7.6083226"
     d="m 1087.9007,117.07959 c 3.9933,0.1781 7.6844,0.85494 11.5444,0.9657 5.6094,0.16096 11.2179,-0.38519 16.8296,-0.43902 7.073,-0.0678 14.1489,0.34073 21.2189,0.14635 5.5206,-0.15177 11.0138,-1.03737 16.537,-1.02439 4.4001,0.0103 8.771,0.91944 13.1707,0.87806 0.876,-0.008 1.7485,-0.10888 2.6184,-0.22409 4.8663,-0.84113 7.9464,-0.0632 12.8632,-0.0464 3.636,-0.24811 11.8844,-1.48561 11.8844,-1.48561"
     style="fill:none;stroke:#7381a8;stroke-width:1.14156914;stroke-linecap:round"
     id="path3757" />
  <g
     id="g1149"
     transform="matrix(-1,0,0,1,1709.2658,158.21918)">
    <path
       inkscape:export-xdpi="7.6083226"
       inkscape:connector-curvature="0"
       inkscape:export-filename="F:\UTIL\wamp-2.0g-1\www\blog\fp-interface\themes\veoveo2\veoveo2\imgs\velero.png"
       inkscape:export-ydpi="7.6083226"
       d="m 1091.4175,174.16897 6.8673,9.23958 c 0.2481,-0.004 0.4965,-0.0155 0.7447,-0.0178 1.7683,-0.017 3.5336,-0.008 5.302,0.0178 1.7684,0.0257 3.538,0.0679 5.3066,0.10256 1.7684,0.0347 3.5383,0.0659 5.3066,0.0758 1.7681,0.01 3.5344,-0.005 5.302,-0.0535 1.3802,-0.0379 2.7606,-0.12172 4.1382,-0.22743 1.3776,-0.1057 2.7524,-0.23168 4.1293,-0.35229 1.3769,-0.1206 2.7559,-0.23396 4.1338,-0.31661 0.6889,-0.0413 1.3751,-0.0762 2.0646,-0.0981 0.6896,-0.0219 1.3833,-0.0308 2.0736,-0.0267 0.8603,0.005 1.7185,0.0349 2.5773,0.0803 0.5317,-0.5371 1.032,-1.21998 1.3735,-2.13159 1.1914,-3.18013 1.1555,-4.61051 -3.0768,-4.38791 -5.2218,0.28457 -10.5804,2.23976 -15.9506,2.77815 -5.3411,0.53549 -10.7982,1.29407 -16.0976,0.44148 -4.9663,-0.79899 -14.1938,-5.12365 -14.1938,-5.12365 z"
       style="fill:#a7246b;stroke-width:0.14269614"
       id="path1143" />
    <path
       inkscape:export-xdpi="7.6083226"
       inkscape:connector-curvature="0"
       inkscape:export-filename="F:\UTIL\wamp-2.0g-1\www\blog\fp-interface\themes\veoveo2\veoveo2\imgs\velero.png"
       sodipodi:nodetypes="cacscsc"
       inkscape:export-ydpi="7.6083226"
       d="m 1113.3699,140.21785 c 0,0 -2.788,13.30656 -2.6938,20.04881 0.078,5.58427 2.6938,16.53706 2.6938,16.53706 0,0 -4.8474,-3.45225 -8.7478,-4.5366 -3.5391,-0.9839 -8.5206,-0.29268 -8.5206,-0.29268 0,0 3.4704,-11.42311 5.9577,-16.82959 4.2789,-9.30022 11.3107,-14.92744 11.3107,-14.92744 z"
       style="fill:#e1e3ed;stroke-width:0.14269614"
       id="path1145" />
    <path
       inkscape:export-xdpi="7.6083226"
       inkscape:connector-curvature="0"
       inkscape:export-filename="F:\UTIL\wamp-2.0g-1\www\blog\fp-interface\themes\veoveo2\veoveo2\imgs\velero.png"
       sodipodi:nodetypes="cscscsc"
       inkscape:export-ydpi="7.6083226"
       d="m 1114.9795,130.41306 c 0,0 3.5952,14.26719 3.6586,21.55425 0.116,13.33981 -3.6586,25.71384 -3.6586,25.71384 0,0 7.3072,-4.15702 11.2683,-5.48309 5.8846,-1.97007 10.9756,-0.75629 10.9756,-0.75629 0,0 -1.1212,-13.50848 -6.7317,-25.14734 -3.2121,-6.6642 -15.5111,-15.88066 -15.5111,-15.88066 z"
       style="fill:#e1e3ed;stroke-width:0.14269614"
       id="path1147" />
  </g>
  <path
     id="path1151"
     style="fill:none;stroke:#7381a8;stroke-width:1.14156914;stroke-linecap:round"
     d="m 1118.7753,261.59788 c 2.3187,0.1781 4.462,0.85494 6.7033,0.9657 3.2571,0.16096 6.5136,-0.38519 9.772,-0.43902 4.107,-0.0678 8.2156,0.34073 12.3208,0.14635 3.2055,-0.15177 6.3951,-1.03737 9.6021,-1.02439 2.5549,0.0103 5.0929,0.91944 7.6476,0.87806 0.5086,-0.008 1.0152,-0.10888 1.5203,-0.22409 2.8256,-0.84113 4.6141,-0.0632 7.469,-0.0464 2.1113,-0.24811 6.9007,-1.48561 6.9007,-1.48561"
     inkscape:export-ydpi="7.6083226"
     sodipodi:nodetypes="caaaaaccc"
     inkscape:export-filename="F:\UTIL\wamp-2.0g-1\www\blog\fp-interface\themes\veoveo2\veoveo2\imgs\velero.png"
     inkscape:connector-curvature="0"
     inkscape:export-xdpi="7.6083226" />
  <g
     id="g1531"
     transform="matrix(1.4715709,0,0,1.4715709,-70.469933,-226.50486)">
    <ellipse
       ry="13.17987"
       rx="12.740541"
       cy="459.78812"
       cx="167.09145"
       id="path1164"
       style="opacity:1;vector-effect:none;fill:#58bac1;fill-opacity:1;stroke:none;stroke-width:5;stroke-linecap:round;stroke-linejoin:round;stroke-miterlimit:4;stroke-dasharray:none;stroke-dashoffset:0;stroke-opacity:1;marker:none;marker-start:none;marker-mid:none;marker-end:none" />
    <g
       transform="translate(0.58577197,0.03661075)"
       id="g1172">
      <path
         style="fill:none;stroke:#007f87;stroke-width:1.70000005;stroke-linecap:round;stroke-linejoin:round;stroke-miterlimit:4;stroke-dasharray:none;stroke-opacity:1"
         d="M 166.35924,480.29014 V 461.25255"
         id="path1153"
         inkscape:connector-curvature="0" />
      <path
         style="fill:none;stroke:#007f87;stroke-width:1.70000005;stroke-linecap:round;stroke-linejoin:round;stroke-miterlimit:4;stroke-dasharray:none;stroke-opacity:1"
         d="m 166.17619,471.02762 -7.32215,-7.32215"
         id="path1155"
         inkscape:connector-curvature="0" />
      <path
         style="fill:none;stroke:#007f87;stroke-width:1.70000005;stroke-linecap:round;stroke-linejoin:round;stroke-miterlimit:4;stroke-dasharray:none;stroke-opacity:1"
         d="m 166.71176,467.80588 4.17362,-4.17363"
         id="path1157"
         inkscape:connector-curvature="0" />
    </g>
  </g>
  <path
     style="fill:#007f87;fill-opacity:1;stroke:none;stroke-width:1px;stroke-linecap:butt;stroke-linejoin:miter;stroke-opacity:1"
     d="m 527.63079,291.23128 c -1.63201,-0.0746 -3.26448,5.12904 -4.89649,13.77929 -0.52491,2.78221 -0.42294,12.1738 3.39844,13.66797 v 3.13086 h 2.3418 v -3.19922 c 3.65812,-1.70055 3.89103,-10.85432 3.47656,-13.59961 -1.44,-9.5381 -2.88031,-13.71351 -4.32031,-13.77929 z"
     id="path1174"
     inkscape:connector-curvature="0" />
  <path
     id="path1180"
     d="m 543.63079,291.23128 c -1.63201,-0.0746 -3.26448,5.12904 -4.89649,13.77929 -0.52491,2.78221 -0.42294,12.1738 3.39844,13.66797 v 3.13086 h 2.3418 v -3.19922 c 3.65812,-1.70055 3.89103,-10.85432 3.47656,-13.59961 -1.44,-9.5381 -2.88031,-13.71351 -4.32031,-13.77929 z"
     style="fill:#007f87;fill-opacity:1;stroke:none;stroke-width:1px;stroke-linecap:butt;stroke-linejoin:miter;stroke-opacity:1"
     inkscape:connector-curvature="0" />
  <path
     inkscape:export-xdpi="7.6083226"
     inkscape:connector-curvature="0"
     inkscape:export-filename="F:\UTIL\wamp-2.0g-1\www\blog\fp-interface\themes\veoveo2\veoveo2\imgs\velero.png"
     sodipodi:nodetypes="caaaaaccc"
     inkscape:export-ydpi="7.6083226"
     d="m 1078.2545,223.62448 c 2.3187,0.1781 4.462,0.85494 6.7033,0.9657 3.2571,0.16096 6.5136,-0.38519 9.772,-0.43902 4.107,-0.0678 8.2156,0.34073 12.3208,0.14635 3.2055,-0.15177 6.3951,-1.03737 9.6021,-1.02439 2.5549,0.0103 5.0929,0.91944 7.6476,0.87806 0.5086,-0.008 1.0152,-0.10888 1.5203,-0.22409 2.8256,-0.84113 4.6141,-0.0632 7.469,-0.0464 2.1113,-0.24811 6.9007,-1.48561 6.9007,-1.48561"
     style="fill:none;stroke:#7381a8;stroke-width:1.14156914;stroke-linecap:round"
     id="path1182" />
  <g
     id="g1226"
     transform="matrix(0.34520027,0,0,0.34520027,218.23805,321.23578)"
     style="stroke-width:2.89686918">
    <path
       d="m 282.93166,88.546773 1.53747,-26.633333 75.18533,-12.778666 2.06667,39.411999 h 9.35867 v 9.159866 h -97.58254 v -9.159866 z m 3.63854,-57.294666 2.11613,-39.5599987 67.60813,-11.2106663 2.04267,38.871999 z m 3.71613,-70.734665 2.0172,-31.339999 h -9.4692 v -9.409333 h 79.84147 v 9.409333 h -9.21334 l 0.96934,20.716 z m 72.38947,-88.897332 v 9.38533 h -79.84147 v -9.38533 h 9.33907 l 30.5824,-34.37066 0.94666,1.06533 29.63467,33.30533 h 9.33867"
       style="fill:#da1354;fill-opacity:1;fill-rule:nonzero;stroke:none;stroke-width:0.38624918"
       id="path50"
       inkscape:connector-curvature="0" />
    <path
       d="m 377.11713,-101.22656 31.19866,-31.16933 c 16.29467,16.16267 16.21067,44.346667 -0.624,61.709333 l -30.57466,-30.540003"
       style="fill:#e1e3ed;fill-opacity:1;fill-rule:evenodd;stroke:none;stroke-width:0.38624918"
       id="path52"
       inkscape:connector-curvature="0" />
    <path
       d="m 423.57846,-147.63189 15.22533,-15.22 c 37.74134,37.74133 28.73067,93.010666 -0.716,122.531999 l -15.13866,-15.113333 c 29.24933,-29.626666 20.24666,-72.581336 0.62933,-92.198666"
       style="fill:#e1e3ed;fill-opacity:1;fill-rule:evenodd;stroke:none;stroke-width:0.38624918"
       id="path54"
       inkscape:connector-curvature="0" />
    <path
       d="m 454.02113,-178.06922 15.224,-15.204 c 53.53599,53.53733 46.56399,136.218663 -0.68934,183.471995 l -15.25866,-15.348 c 44.40666,-44.407999 39.14266,-114.499995 0.724,-152.919995"
       style="fill:#e1e3ed;fill-opacity:1;fill-rule:evenodd;stroke:none;stroke-width:0.38624918"
       id="path56"
       inkscape:connector-curvature="0" />
    <path
       d="M 353.33713,-112.45722 H 292.1734 v 26.154664 h 61.16373 v -26.154664"
       style="fill:#e1e3ed;fill-opacity:1;fill-rule:evenodd;stroke:none;stroke-width:0.38624918"
       id="path58"
       inkscape:connector-curvature="0" />
  </g>
  <g
     id="g1280"
     transform="matrix(0.06207948,0,0,0.06207948,881.06587,298.05965)"
     style="fill:#7381a8;stroke-width:17.18236542">
    <path
       id="path1278"
       d="m 326.19,1166.2 c -0.1102,-0.1101 -0.2003,-18.47 -0.2003,-40.8 v -40.6 h 53.25 c 29.287,0 53.257,-0.034 53.266,-0.075 0.077,-0.3658 28.389,-919.6 28.326,-919.67 -0.085,-0.0974 -1.1682,1.4787 -12.747,18.546 -128.9,190.01 -243.52,319.03 -321.69,362.09 -12.843,7.0753 -32.793,14.317 -34.564,12.546 -0.054,-0.054 73.67,-116.78 163.83,-259.4 90.162,-142.61 163.93,-259.41 163.93,-259.54 0,-0.13152 -3.5299,-5.5527 -7.8442,-12.047 -156.11,-234.99 -245.06,-426.03 -234.01,-502.61 0.4684,-3.2489 1.5039,-7.8494 1.971,-8.7576 0.3653,-0.71024 -14.503,-22.001 239.4,342.81 44.04,63.277 81.443,117.01 83.118,119.4 l 3.0442,4.35 12.439,0.20373 c 6.8413,0.11205 22.361,0.35289 34.489,0.53517 240.41,3.6138 418.57,28.957 503.95,71.684 15.787,7.9008 31.648,19.198 34.54,24.601 0.395,0.73806 19.891,0.51294 -301.15,3.4774 -150.21,1.3871 -273.14,2.5616 -273.18,2.61 -0.053,0.0723 35.154,998.92 35.219,999.16 0.0111,0.041 23.038,0.075 51.171,0.075 h 51.151 l -0.076,40.725 -0.076,40.725 -163.67,0.075 c -90.021,0.041 -163.76,-0.015 -163.87,-0.125 z M 487.11,73.4 c 28.881,-7.5178 34.696,-45.481 9.3707,-61.175 -20.868,-12.932 -48.338,0.87846 -50.804,25.543 -2.2679,22.685 19.443,41.357 41.433,35.633 z"
       style="fill:#7381a8;stroke-width:17.18236542;enable-background:new"
       inkscape:connector-curvature="0" />
  </g>
  <path
     style="opacity:1;vector-effect:none;fill:#cc3399;fill-opacity:1;stroke:none;stroke-width:1.70000005;stroke-linecap:round;stroke-linejoin:round;stroke-miterlimit:4;stroke-dasharray:none;stroke-dashoffset:0;stroke-opacity:1;marker:none;marker-start:none;marker-mid:none;marker-end:none"
     d="m 914.43743,139.92659 v 21.23437 h 16.25586 v -21.23437 z m 3.11328,2.52734 h 2.0293 v 4.54102 h -2.0293 z m 4,0 h 2.0293 v 4.54102 h -2.0293 z m 4,0 h 2.0293 v 4.54102 h -2.0293 z m -8,6 h 2.0293 v 4.54102 h -2.0293 z m 4,0 h 2.0293 v 4.54102 h -2.0293 z m 4,0 h 2.0293 v 4.54102 h -2.0293 z m -8,6 h 2.0293 v 4.54102 h -2.0293 z m 4,0 h 2.0293 v 4.54102 h -2.0293 z m 4,0 h 2.0293 v 4.54102 h -2.0293 z"
     id="rect1522"
     inkscape:connector-curvature="0" />
  <path
     style="fill:#d4004b;stroke:none;stroke-width:1.14302611px;stroke-linecap:butt;stroke-linejoin:miter;stroke-opacity:1"
     d="M 294.21363,596.04119 H 1193.6421 V 437.6127 Z"
     id="path1533"
     inkscape:connector-curvature="0" />
  <path
     inkscape:connector-curvature="0"
     id="path1535"
     d="M 899.42847,0 H 0 v 158.42849 z"
     style="fill:#d4004b;stroke:none;stroke-width:1.14302611px;stroke-linecap:butt;stroke-linejoin:miter;stroke-opacity:1" />
  <text
     xml:space="preserve"
     style="font-style:normal;font-variant:normal;font-weight:bold;font-stretch:normal;font-size:26.66666603px;line-height:1.25;font-family:Arial;-inkscape-font-specification:'Arial Bold';letter-spacing:0px;word-spacing:0px;fill:#ffffff;fill-opacity:1;stroke:none"
     x="32.524849"
     y="47.68615"
     id="text1539"><tspan
       sodipodi:role="line"
       id="tspan1537"
       x="32.524849"
       y="47.68615">Händischer Aufwand pro Datei</tspan></text>
  <text
     xml:space="preserve"
     style="font-style:normal;font-variant:normal;font-weight:bold;font-stretch:normal;font-size:26.66666603px;line-height:1.25;font-family:Arial;-inkscape-font-specification:'Arial Bold';font-variant-ligatures:normal;font-variant-position:normal;font-variant-caps:normal;font-variant-numeric:normal;font-variant-alternates:normal;font-feature-settings:normal;text-indent:0;text-align:start;text-decoration:none;text-decoration-line:none;text-decoration-style:solid;text-decoration-color:#000000;letter-spacing:0px;word-spacing:0px;text-transform:none;writing-mode:lr-tb;direction:ltr;text-orientation:mixed;dominant-baseline:auto;baseline-shift:baseline;text-anchor:start;white-space:normal;shape-padding:0;opacity:1;vector-effect:none;fill:#ffffff;fill-opacity:1;stroke:none;stroke-width:1;stroke-linecap:butt;stroke-linejoin:miter;stroke-miterlimit:4;stroke-dasharray:none;stroke-dashoffset:0;stroke-opacity:1"
     x="721.75922"
     y="571.28668"
     id="text1543"><tspan
       sodipodi:role="line"
       id="tspan1541"
       x="721.75922"
       y="571.28668">Vorbereitungsaufwand der Methode</tspan></text>
  <text
     xml:space="preserve"
     style="font-style:normal;font-variant:normal;font-weight:bold;font-stretch:normal;font-size:21.33333397px;line-height:1.25;font-family:Arial;-inkscape-font-specification:'Arial Bold';font-variant-ligatures:normal;font-variant-position:normal;font-variant-caps:normal;font-variant-numeric:normal;font-variant-alternates:normal;font-feature-settings:normal;text-indent:0;text-align:start;text-decoration:none;text-decoration-line:none;text-decoration-style:solid;text-decoration-color:#000000;letter-spacing:0px;word-spacing:0px;text-transform:none;writing-mode:lr-tb;direction:ltr;text-orientation:mixed;dominant-baseline:auto;baseline-shift:baseline;text-anchor:start;white-space:normal;shape-padding:0;opacity:1;vector-effect:none;fill:#ffffff;fill-opacity:1;stroke:none;stroke-width:1;stroke-linecap:butt;stroke-linejoin:miter;stroke-miterlimit:4;stroke-dasharray:none;stroke-dashoffset:0;stroke-opacity:1"
     x="1068.5574"
     y="164.71759"
     id="text1567"><tspan
       sodipodi:role="line"
       x="1068.5574"
       y="164.71759"
       id="tspan1569">Open-Data-</tspan><tspan
       sodipodi:role="line"
       x="1068.5574"
       y="191.38426"
       id="tspan1573">Portal SH</tspan></text>
  <text
     xml:space="preserve"
     style="font-style:normal;font-variant:normal;font-weight:normal;font-stretch:normal;font-size:32px;line-height:1.25;font-family:Arial;-inkscape-font-specification:Arial;letter-spacing:0px;word-spacing:0px;fill:#000000;fill-opacity:1;stroke:none"
     x="95.646568"
     y="423.06543"
     id="text1622"><tspan
       sodipodi:role="line"
       id="tspan1620"
       x="95.646568"
       y="423.06543">1</tspan></text>
  <text
     xml:space="preserve"
     style="font-style:normal;font-variant:normal;font-weight:normal;font-stretch:normal;font-size:32px;line-height:1.25;font-family:Arial;-inkscape-font-specification:Arial;font-variant-ligatures:normal;font-variant-position:normal;font-variant-caps:normal;font-variant-numeric:normal;font-variant-alternates:normal;font-feature-settings:normal;text-indent:0;text-align:start;text-decoration:none;text-decoration-line:none;text-decoration-style:solid;text-decoration-color:#000000;letter-spacing:0px;word-spacing:0px;text-transform:none;writing-mode:lr-tb;direction:ltr;text-orientation:mixed;dominant-baseline:auto;baseline-shift:baseline;text-anchor:start;white-space:normal;shape-padding:0;opacity:1;vector-effect:none;fill:#000000;fill-opacity:1;stroke:none;stroke-width:1;stroke-linecap:butt;stroke-linejoin:miter;stroke-miterlimit:4;stroke-dasharray:none;stroke-dashoffset:0;stroke-opacity:1"
     x="267.41577"
     y="422.78061"
     id="text1630"><tspan
       sodipodi:role="line"
       id="tspan1628"
       x="267.41577"
       y="422.78061">2</tspan></text>
  <text
     xml:space="preserve"
     style="font-style:normal;font-variant:normal;font-weight:normal;font-stretch:normal;font-size:32px;line-height:1.25;font-family:Arial;-inkscape-font-specification:Arial;font-variant-ligatures:normal;font-variant-position:normal;font-variant-caps:normal;font-variant-numeric:normal;font-variant-alternates:normal;font-feature-settings:normal;text-indent:0;text-align:start;text-decoration:none;text-decoration-line:none;text-decoration-style:solid;text-decoration-color:#000000;letter-spacing:0px;word-spacing:0px;text-transform:none;writing-mode:lr-tb;direction:ltr;text-orientation:mixed;dominant-baseline:auto;baseline-shift:baseline;text-anchor:start;white-space:normal;shape-padding:0;opacity:1;vector-effect:none;fill:#000000;fill-opacity:1;stroke:none;stroke-width:1;stroke-linecap:butt;stroke-linejoin:miter;stroke-miterlimit:4;stroke-dasharray:none;stroke-dashoffset:0;stroke-opacity:1"
     x="448.37131"
     y="263.87299"
     id="text1634"><tspan
       sodipodi:role="line"
       id="tspan1632"
       x="448.37131"
       y="263.87299">3</tspan></text>
  <text
     xml:space="preserve"
     style="font-style:normal;font-variant:normal;font-weight:normal;font-stretch:normal;font-size:32px;line-height:1.25;font-family:Arial;-inkscape-font-specification:Arial;font-variant-ligatures:normal;font-variant-position:normal;font-variant-caps:normal;font-variant-numeric:normal;font-variant-alternates:normal;font-feature-settings:normal;text-indent:0;text-align:start;text-decoration:none;text-decoration-line:none;text-decoration-style:solid;text-decoration-color:#000000;letter-spacing:0px;word-spacing:0px;text-transform:none;writing-mode:lr-tb;direction:ltr;text-orientation:mixed;dominant-baseline:auto;baseline-shift:baseline;text-anchor:start;white-space:normal;shape-padding:0;opacity:1;vector-effect:none;fill:#000000;fill-opacity:1;stroke:none;stroke-width:1;stroke-linecap:butt;stroke-linejoin:miter;stroke-miterlimit:4;stroke-dasharray:none;stroke-dashoffset:0;stroke-opacity:1"
     x="658.34467"
     y="263.22363"
     id="text1638"><tspan
       sodipodi:role="line"
       id="tspan1636"
       x="658.34467"
       y="263.22363">4</tspan></text>
  <text
     xml:space="preserve"
     style="font-style:normal;font-variant:normal;font-weight:normal;font-stretch:normal;font-size:32px;line-height:1.25;font-family:Arial;-inkscape-font-specification:Arial;font-variant-ligatures:normal;font-variant-position:normal;font-variant-caps:normal;font-variant-numeric:normal;font-variant-alternates:normal;font-feature-settings:normal;text-indent:0;text-align:start;text-decoration:none;text-decoration-line:none;text-decoration-style:solid;text-decoration-color:#000000;letter-spacing:0px;word-spacing:0px;text-transform:none;writing-mode:lr-tb;direction:ltr;text-orientation:mixed;dominant-baseline:auto;baseline-shift:baseline;text-anchor:start;white-space:normal;shape-padding:0;opacity:1;vector-effect:none;fill:#000000;fill-opacity:1;stroke:none;stroke-width:1;stroke-linecap:butt;stroke-linejoin:miter;stroke-miterlimit:4;stroke-dasharray:none;stroke-dashoffset:0;stroke-opacity:1"
     x="963.88135"
     y="103.36199"
     id="text1642"><tspan
       sodipodi:role="line"
       id="tspan1640"
       x="963.88135"
       y="103.36199">6</tspan></text>
</svg>
